<svg xmlns="http://www.w3.org/2000/svg" version="1.1" xmlns:xlink="http://www.w3.org/1999/xlink" xmlns:svgjs="http://svgjs.dev/svgjs" width="1500" height="935" viewBox="0 0 1500 935"><g transform="matrix(1,0,0,1,-0.9090909090909918,0.3785425101214628)"><svg viewBox="0 0 396 247" data-background-color="#ffffff" preserveAspectRatio="xMidYMid meet" height="935" width="1500" xmlns="http://www.w3.org/2000/svg" xmlns:xlink="http://www.w3.org/1999/xlink"><g id="tight-bounds" transform="matrix(1,0,0,1,0.2400000000000091,-0.09999999999999432)"><svg viewBox="0 0 395.52 247.2" height="247.2" width="395.52"><g><svg></svg></g><g><svg viewBox="0 0 395.52 247.2" height="247.2" width="395.52"><mask id="cf24d3cd-b653-468d-abbb-3b91c78d1d8a"><rect width="640" height="400" fill="white"></rect><g transform="matrix(1,0,0,1,0,89.33595726704132)"><svg viewBox="0 0 395.52 68.52808546591734" height="68.52808546591734" width="395.52"><g><svg viewBox="0 0 395.52 68.52808546591734" height="68.52808546591734" width="395.52"><g><svg viewBox="0 0 395.52 68.52808546591734" height="68.52808546591734" width="395.52"><g id="SvgjsG1099"><svg viewBox="0 0 395.52 68.52808546591734" height="68.52808546591734" width="395.52" id="SvgjsSvg1098"><g><svg viewBox="0 0 395.52 39.97226918536009" height="39.97226918536009" width="395.52"><g transform="matrix(1,0,0,1,0,0)"><svg width="395.52" viewBox="-4 -39.8 424.47 43.8" height="39.97226918536009" data-palette-color="#41907a"><path d="M18.05-2.15L30.2-2.15 30.2 0 0 0 0-2.15 12.15-2.15 12.15-29.55 1.55-29.55 1.55-34.95 28.65-34.95 28.65-29.55 18.05-29.55 18.05-2.15ZM30.2-2.15L35.05-2.15 35.05-34.95 59.6-34.95 59.6-29.4 40.95-29.4 40.95-20.15 57.7-20.15 57.7-14.9 40.95-14.9 40.95-5.55 60.2-5.55 60.2-2.15 65.05-2.15 65.05 0 30.2 0 30.2-2.15ZM62.9-2.15L67.75-2.15 67.75-34.95 73.65-34.95 93.95-8.85 93.95-34.95 99.85-34.95 99.85-2.15 104.7-2.15 104.7 0 93.45 0 73.65-25.5 73.65 0 62.9 0 62.9-2.15ZM104.69-2.15L109.54-2.15 109.54-34.95 115.44-34.95 135.74-8.85 135.74-34.95 141.64-34.95 141.64-2.15 146.49-2.15 146.49 0 135.24 0 115.44-25.5 115.44 0 104.69 0 104.69-2.15ZM146.49-2.15L151.34-2.15 151.34-34.95 157.24-34.95 157.24-2.15 162.09-2.15 162.09 0 146.49 0 146.49-2.15ZM187.34-2.15L193.59-2.15 193.59 0 162.09 0 162.09-2.15 168.49-2.15Q166.09-3.4 164.09-5.25L164.09-5.25 167.79-9.7Q173.09-5.1 178.79-5.1L178.79-5.1Q181.64-5.1 183.31-6.33 184.99-7.55 184.99-9.58 184.99-11.6 183.41-12.73 181.84-13.85 177.99-14.78 174.14-15.7 172.14-16.48 170.14-17.25 168.59-18.5L168.59-18.5Q165.49-20.85 165.49-25.7 165.49-30.55 169.01-33.18 172.54-35.8 177.74-35.8L177.74-35.8Q181.09-35.8 184.39-34.7 187.69-33.6 190.09-31.6L190.09-31.6 186.94-27.15Q185.39-28.55 182.74-29.45 180.09-30.35 177.51-30.35 174.94-30.35 173.29-29.3 171.64-28.25 171.64-26.13 171.64-24 173.29-22.88 174.94-21.75 180.31-20.45 185.69-19.15 188.41-16.8 191.14-14.45 191.14-10.2L191.14-10.2Q191.14-5.05 187.34-2.15L187.34-2.15ZM193.59-2.15L207.29-2.15 207.29 0 193.59 0 193.59-2.15ZM233.98-2.15L238.83-2.15 238.83 0 207.28 0 207.28-2.15 212.13-2.15 212.13-34.95 218.03-34.95 218.03-5.6 233.98-5.6 233.98-2.15ZM235.58-2.15L240.43-2.15 240.43-34.95 264.98-34.95 264.98-29.4 246.33-29.4 246.33-20.15 263.08-20.15 263.08-14.9 246.33-14.9 246.33-5.55 265.58-5.55 265.58-2.15 270.43-2.15 270.43 0 235.58 0 235.58-2.15ZM304.43-2.15L310.23-2.15 310.23 0 299.08 0 295.58-7.95 278.08-7.95 274.58 0 263.43 0 263.43-2.15 269.23-2.15 283.68-34.95 289.98-34.95 304.43-2.15ZM280.48-13.4L293.18-13.4 286.83-27.8 280.48-13.4ZM335.83-2.15L343.23-2.15 343.23 0 305.38 0 305.38-2.15 317.48-2.15Q313.13-4.35 310.55-8.6 307.98-12.85 307.98-18.2L307.98-18.2Q307.98-25.85 313.28-30.83 318.58-35.8 326.15-35.8 333.73-35.8 338.73-31.4L338.73-31.4 335.58-26.9Q333.53-28.65 331.45-29.33 329.38-30 326.63-30L326.63-30Q321.28-30 317.7-26.8 314.13-23.6 314.13-18.05 314.13-12.5 317.63-9.13 321.13-5.75 326.1-5.75 331.08-5.75 334.43-7.9L334.43-7.9 334.43-17.5 340.33-17.5 340.33-5.55Q338.48-3.5 335.83-2.15L335.83-2.15ZM371.22-2.15L381.62-2.15 381.62 0 343.22 0 343.22-2.15 353.57-2.15Q347.62-6.3 347.62-15.3L347.62-15.3 347.62-34.95 353.52-34.95 353.52-15.55Q353.52-10.75 355.92-7.95 358.32-5.15 362.42-5.15 366.52-5.15 368.92-7.95 371.32-10.75 371.32-15.55L371.32-15.55 371.32-34.95 377.22-34.95 377.22-15.3Q377.22-6.25 371.22-2.15L371.22-2.15ZM381.62-2.15L386.47-2.15 386.47-34.95 411.02-34.95 411.02-29.4 392.37-29.4 392.37-20.15 409.12-20.15 409.12-14.9 392.37-14.9 392.37-5.55 411.62-5.55 411.62-2.15 416.47-2.15 416.47 0 381.62 0 381.62-2.15Z" opacity="1" transform="matrix(1,0,0,1,0,0)" fill="black" class="wordmark-text-0" id="SvgjsPath1097" stroke-width="7" stroke="black" stroke-linejoin="round"></path></svg></g></svg></g><g transform="matrix(1,0,0,1,3.5,47.86541087795985)"><svg viewBox="0 0 388.52 20.662674587957493" height="20.662674587957493" width="388.52"><g transform="matrix(1,0,0,1,0,0)"><svg width="388.52" viewBox="-0.3900000000000001 -42.01 864.1999999999999 46.5" height="20.662674587957493" data-palette-color="#41907a"><path d="M23.8 0L16.67-13.7 9.79-13.7 9.79 0 3.61 0 3.61-35.55 16.11-35.55Q22.27-35.55 25.61-32.79 28.96-30.03 28.96-24.8L28.96-24.8Q28.96-21.24 27.23-18.84 25.51-16.43 22.44-15.14L22.44-15.14 30.42-0.32 30.42 0 23.8 0ZM9.79-30.57L9.79-18.65 16.14-18.65Q19.26-18.65 21.02-20.23 22.78-21.8 22.78-24.54L22.78-24.54Q22.78-27.39 21.15-28.96 19.53-30.52 16.31-30.57L16.31-30.57 9.79-30.57ZM105.01 0L104.86-2.59Q102.25 0.49 97.44 0.49L97.44 0.49Q93.14 0.49 90.93-2.03 88.73-4.54 88.73-9.3L88.73-9.3 88.73-26.42 94.66-26.42 94.66-9.38Q94.66-4.35 98.83-4.35L98.83-4.35Q103.15-4.35 104.67-7.45L104.67-7.45 104.67-26.42 110.6-26.42 110.6 0 105.01 0ZM171.18-26.42L176.77-26.42 176.94-23.36Q179.87-26.9 184.63-26.9L184.63-26.9Q192.88-26.9 193.03-17.46L193.03-17.46 193.03 0 187.09 0 187.09-17.11Q187.09-19.63 186.01-20.84 184.92-22.05 182.46-22.05L182.46-22.05Q178.87-22.05 177.11-18.8L177.11-18.8 177.11 0 171.18 0 171.18-26.42ZM328.78 0L322.84 0 322.84-22.02 318.82-22.02 318.82-26.42 322.84-26.42 322.84-28.83Q322.84-33.23 325.29-35.62 327.73-38.01 332.12-38.01L332.12-38.01Q333.68-38.01 335.44-37.57L335.44-37.57 335.3-32.93Q334.32-33.13 333.03-33.13L333.03-33.13Q328.78-33.13 328.78-28.76L328.78-28.76 328.78-26.42 334.15-26.42 334.15-22.02 328.78-22.02 328.78 0ZM391.99-13.16L391.99-13.45Q391.99-17.33 393.53-20.45 395.07-23.56 397.85-25.23 400.63-26.9 404.25-26.9L404.25-26.9Q409.59-26.9 412.92-23.46 416.26-20.02 416.53-14.33L416.53-14.33 416.55-12.94Q416.55-9.03 415.05-5.96 413.55-2.88 410.75-1.2 407.96 0.49 404.29 0.49L404.29 0.49Q398.7 0.49 395.35-3.23 391.99-6.96 391.99-13.16L391.99-13.16ZM397.92-12.94L397.92-12.94Q397.92-8.86 399.61-6.56 401.29-4.25 404.29-4.25 407.3-4.25 408.97-6.59 410.64-8.94 410.64-13.45L410.64-13.45Q410.64-17.46 408.92-19.8 407.2-22.14 404.25-22.14L404.25-22.14Q401.34-22.14 399.63-19.84 397.92-17.53 397.92-12.94ZM490.04-26.56L490.02-21Q488.84-21.19 487.6-21.19L487.6-21.19Q483.52-21.19 482.11-18.07L482.11-18.07 482.11 0 476.17 0 476.17-26.42 481.84-26.42 481.98-23.46Q484.13-26.9 487.94-26.9L487.94-26.9Q489.21-26.9 490.04-26.56L490.04-26.56ZM623.47 0L617.54 0 617.54-22.02 613.51-22.02 613.51-26.42 617.54-26.42 617.54-28.83Q617.54-33.23 619.98-35.62 622.42-38.01 626.82-38.01L626.82-38.01Q628.38-38.01 630.14-37.57L630.14-37.57 629.99-32.93Q629.01-33.13 627.72-33.13L627.72-33.13Q623.47-33.13 623.47-28.76L623.47-28.76 623.47-26.42 628.84-26.42 628.84-22.02 623.47-22.02 623.47 0ZM703.95 0L703.8-2.59Q701.19 0.49 696.38 0.49L696.38 0.49Q692.08 0.49 689.87-2.03 687.66-4.54 687.66-9.3L687.66-9.3 687.66-26.42 693.59-26.42 693.59-9.38Q693.59-4.35 697.77-4.35L697.77-4.35Q702.09-4.35 703.6-7.45L703.6-7.45 703.6-26.42 709.54-26.42 709.54 0 703.95 0ZM770.11-26.42L775.7-26.42 775.87-23.36Q778.8-26.9 783.56-26.9L783.56-26.9Q791.82-26.9 791.96-17.46L791.96-17.46 791.96 0 786.03 0 786.03-17.11Q786.03-19.63 784.94-20.84 783.86-22.05 781.39-22.05L781.39-22.05Q777.8-22.05 776.05-18.8L776.05-18.8 776.05 0 770.11 0 770.11-26.42ZM859.5-35.55L858.91-10.47 853.81-10.47 853.25-35.55 859.5-35.55ZM853.08-2.81L853.08-2.81Q853.08-4.2 853.98-5.11 854.88-6.03 856.45-6.03 858.01-6.03 858.91-5.11 859.81-4.2 859.81-2.81L859.81-2.81Q859.81-1.46 858.94-0.56 858.06 0.34 856.45 0.34 854.83 0.34 853.95-0.56 853.08-1.46 853.08-2.81Z" opacity="1" transform="matrix(1,0,0,1,0,0)" fill="black" class="slogan-text-1" id="SvgjsPath1096" stroke-width="7" stroke="black" stroke-linejoin="round"></path></svg></g></svg></g></svg></g></svg></g></svg></g></svg></g></mask><g transform="matrix(1,0,0,1,0,89.33595726704132)"><svg viewBox="0 0 395.52 68.52808546591734" height="68.52808546591734" width="395.52"><g><svg viewBox="0 0 395.52 68.52808546591734" height="68.52808546591734" width="395.52"><g><svg viewBox="0 0 395.52 68.52808546591734" height="68.52808546591734" width="395.52"><g id="textblocktransform"><svg viewBox="0 0 395.52 68.52808546591734" height="68.52808546591734" width="395.52" id="textblock"><g><svg viewBox="0 0 395.52 39.97226918536009" height="39.97226918536009" width="395.52"><g transform="matrix(1,0,0,1,0,0)"><svg width="395.52" viewBox="-4 -39.8 424.47 43.8" height="39.97226918536009" data-palette-color="#41907a"><path d="M18.05-2.15L30.2-2.15 30.2 0 0 0 0-2.15 12.15-2.15 12.15-29.55 1.55-29.55 1.55-34.95 28.65-34.95 28.65-29.55 18.05-29.55 18.05-2.15ZM30.2-2.15L35.05-2.15 35.05-34.95 59.6-34.95 59.6-29.4 40.95-29.4 40.95-20.15 57.7-20.15 57.7-14.9 40.95-14.9 40.95-5.55 60.2-5.55 60.2-2.15 65.05-2.15 65.05 0 30.2 0 30.2-2.15ZM62.9-2.15L67.75-2.15 67.75-34.95 73.65-34.95 93.95-8.85 93.95-34.95 99.85-34.95 99.85-2.15 104.7-2.15 104.7 0 93.45 0 73.65-25.5 73.65 0 62.9 0 62.9-2.15ZM104.69-2.15L109.54-2.15 109.54-34.95 115.44-34.95 135.74-8.85 135.74-34.95 141.64-34.95 141.64-2.15 146.49-2.15 146.49 0 135.24 0 115.44-25.5 115.44 0 104.69 0 104.69-2.15ZM146.49-2.15L151.34-2.15 151.34-34.95 157.24-34.95 157.24-2.15 162.09-2.15 162.09 0 146.49 0 146.49-2.15ZM187.34-2.15L193.59-2.15 193.59 0 162.09 0 162.09-2.15 168.49-2.15Q166.09-3.4 164.09-5.25L164.09-5.25 167.79-9.7Q173.09-5.1 178.79-5.1L178.79-5.1Q181.64-5.1 183.31-6.33 184.99-7.55 184.99-9.58 184.99-11.6 183.41-12.73 181.84-13.85 177.99-14.78 174.14-15.7 172.14-16.48 170.14-17.25 168.59-18.5L168.59-18.5Q165.49-20.85 165.49-25.7 165.49-30.55 169.01-33.18 172.54-35.8 177.74-35.8L177.74-35.8Q181.09-35.8 184.39-34.7 187.69-33.6 190.09-31.6L190.09-31.6 186.94-27.15Q185.39-28.55 182.74-29.45 180.09-30.35 177.51-30.35 174.94-30.35 173.29-29.3 171.64-28.25 171.64-26.13 171.64-24 173.29-22.88 174.94-21.75 180.31-20.45 185.69-19.15 188.41-16.8 191.14-14.45 191.14-10.2L191.14-10.2Q191.14-5.05 187.34-2.15L187.34-2.15ZM193.59-2.15L207.29-2.15 207.29 0 193.59 0 193.59-2.15ZM233.98-2.15L238.83-2.15 238.83 0 207.28 0 207.28-2.15 212.13-2.15 212.13-34.95 218.03-34.95 218.03-5.6 233.98-5.6 233.98-2.15ZM235.58-2.15L240.43-2.15 240.43-34.95 264.98-34.95 264.98-29.4 246.33-29.4 246.33-20.15 263.08-20.15 263.08-14.9 246.33-14.9 246.33-5.55 265.58-5.55 265.58-2.15 270.43-2.15 270.43 0 235.58 0 235.58-2.15ZM304.43-2.15L310.23-2.15 310.23 0 299.08 0 295.58-7.95 278.08-7.95 274.58 0 263.43 0 263.43-2.15 269.23-2.15 283.68-34.95 289.98-34.95 304.43-2.15ZM280.48-13.4L293.18-13.4 286.83-27.8 280.48-13.4ZM335.83-2.15L343.23-2.15 343.23 0 305.38 0 305.38-2.15 317.48-2.15Q313.13-4.35 310.55-8.6 307.98-12.85 307.98-18.2L307.98-18.2Q307.98-25.85 313.28-30.83 318.58-35.8 326.15-35.8 333.73-35.8 338.73-31.4L338.73-31.4 335.58-26.9Q333.53-28.65 331.45-29.33 329.38-30 326.63-30L326.63-30Q321.28-30 317.7-26.8 314.13-23.6 314.13-18.05 314.13-12.5 317.63-9.13 321.13-5.75 326.1-5.75 331.08-5.75 334.43-7.9L334.43-7.9 334.43-17.5 340.33-17.5 340.33-5.55Q338.48-3.5 335.83-2.15L335.83-2.15ZM371.22-2.15L381.62-2.15 381.62 0 343.22 0 343.22-2.15 353.57-2.15Q347.62-6.3 347.62-15.3L347.62-15.3 347.62-34.95 353.52-34.95 353.52-15.55Q353.52-10.75 355.92-7.95 358.32-5.15 362.42-5.15 366.52-5.15 368.92-7.95 371.32-10.75 371.32-15.55L371.32-15.55 371.32-34.95 377.22-34.95 377.22-15.3Q377.22-6.25 371.22-2.15L371.22-2.15ZM381.62-2.15L386.47-2.15 386.47-34.95 411.02-34.95 411.02-29.4 392.37-29.4 392.37-20.15 409.12-20.15 409.12-14.9 392.37-14.9 392.37-5.55 411.62-5.55 411.62-2.15 416.47-2.15 416.47 0 381.62 0 381.62-2.15Z" opacity="1" transform="matrix(1,0,0,1,0,0)" fill="#41907a" class="wordmark-text-0" data-fill-palette-color="primary" id="text-0"></path></svg></g></svg></g><g transform="matrix(1,0,0,1,3.5,47.86541087795985)"><svg viewBox="0 0 388.52 20.662674587957493" height="20.662674587957493" width="388.52"><g transform="matrix(1,0,0,1,0,0)"><svg width="388.52" viewBox="-0.3900000000000001 -42.01 864.1999999999999 46.5" height="20.662674587957493" data-palette-color="#41907a"><path d="M23.8 0L16.67-13.7 9.79-13.7 9.79 0 3.61 0 3.61-35.55 16.11-35.55Q22.27-35.55 25.61-32.79 28.96-30.03 28.96-24.8L28.96-24.8Q28.96-21.24 27.23-18.84 25.51-16.43 22.44-15.14L22.44-15.14 30.42-0.32 30.42 0 23.8 0ZM9.79-30.57L9.79-18.65 16.14-18.65Q19.26-18.65 21.02-20.23 22.78-21.8 22.78-24.54L22.78-24.54Q22.78-27.39 21.15-28.96 19.53-30.52 16.31-30.57L16.31-30.57 9.79-30.57ZM105.01 0L104.86-2.59Q102.25 0.49 97.44 0.49L97.44 0.49Q93.14 0.49 90.93-2.03 88.73-4.54 88.73-9.3L88.73-9.3 88.73-26.42 94.66-26.42 94.66-9.38Q94.66-4.35 98.83-4.35L98.83-4.35Q103.15-4.35 104.67-7.45L104.67-7.45 104.67-26.42 110.6-26.42 110.6 0 105.01 0ZM171.18-26.42L176.77-26.42 176.94-23.36Q179.87-26.9 184.63-26.9L184.63-26.9Q192.88-26.9 193.03-17.46L193.03-17.46 193.03 0 187.09 0 187.09-17.11Q187.09-19.63 186.01-20.84 184.92-22.05 182.46-22.05L182.46-22.05Q178.87-22.05 177.11-18.8L177.11-18.8 177.11 0 171.18 0 171.18-26.42ZM328.78 0L322.84 0 322.84-22.02 318.82-22.02 318.82-26.42 322.84-26.42 322.84-28.83Q322.84-33.23 325.29-35.62 327.73-38.01 332.12-38.01L332.12-38.01Q333.68-38.01 335.44-37.57L335.44-37.57 335.3-32.93Q334.32-33.13 333.03-33.13L333.03-33.13Q328.78-33.13 328.78-28.76L328.78-28.76 328.78-26.42 334.15-26.42 334.15-22.02 328.78-22.02 328.78 0ZM391.99-13.16L391.99-13.45Q391.99-17.33 393.53-20.45 395.07-23.56 397.85-25.23 400.63-26.9 404.25-26.9L404.25-26.9Q409.59-26.9 412.92-23.46 416.26-20.02 416.53-14.33L416.53-14.33 416.55-12.94Q416.55-9.03 415.05-5.96 413.55-2.88 410.75-1.2 407.96 0.49 404.29 0.49L404.29 0.49Q398.7 0.49 395.35-3.23 391.99-6.96 391.99-13.16L391.99-13.16ZM397.92-12.94L397.92-12.94Q397.92-8.86 399.61-6.56 401.29-4.25 404.29-4.25 407.3-4.25 408.97-6.59 410.64-8.94 410.64-13.45L410.64-13.45Q410.64-17.46 408.92-19.8 407.2-22.14 404.25-22.14L404.25-22.14Q401.34-22.14 399.63-19.84 397.92-17.53 397.92-12.94ZM490.04-26.56L490.02-21Q488.84-21.19 487.6-21.19L487.6-21.19Q483.52-21.19 482.11-18.07L482.11-18.07 482.11 0 476.17 0 476.17-26.42 481.84-26.42 481.98-23.46Q484.13-26.9 487.94-26.9L487.94-26.9Q489.21-26.9 490.04-26.56L490.04-26.56ZM623.47 0L617.54 0 617.54-22.02 613.51-22.02 613.51-26.42 617.54-26.42 617.54-28.83Q617.54-33.23 619.98-35.62 622.42-38.01 626.82-38.01L626.82-38.01Q628.38-38.01 630.14-37.57L630.14-37.57 629.99-32.93Q629.01-33.13 627.72-33.13L627.72-33.13Q623.47-33.13 623.47-28.76L623.47-28.76 623.47-26.42 628.84-26.42 628.84-22.02 623.47-22.02 623.47 0ZM703.95 0L703.8-2.59Q701.19 0.49 696.38 0.49L696.38 0.49Q692.08 0.49 689.87-2.03 687.66-4.54 687.66-9.3L687.66-9.3 687.66-26.42 693.59-26.42 693.59-9.38Q693.59-4.35 697.77-4.35L697.77-4.35Q702.09-4.35 703.6-7.45L703.6-7.45 703.6-26.42 709.54-26.42 709.54 0 703.95 0ZM770.11-26.42L775.7-26.42 775.87-23.36Q778.8-26.9 783.56-26.9L783.56-26.9Q791.82-26.9 791.96-17.46L791.96-17.46 791.96 0 786.03 0 786.03-17.11Q786.03-19.63 784.94-20.84 783.86-22.05 781.39-22.05L781.39-22.05Q777.8-22.05 776.05-18.8L776.05-18.8 776.05 0 770.11 0 770.11-26.42ZM859.5-35.55L858.91-10.47 853.81-10.47 853.25-35.55 859.5-35.55ZM853.08-2.81L853.08-2.81Q853.08-4.2 853.98-5.11 854.88-6.03 856.45-6.03 858.01-6.03 858.91-5.11 859.81-4.2 859.81-2.81L859.81-2.81Q859.81-1.46 858.94-0.56 858.06 0.34 856.45 0.34 854.83 0.34 853.95-0.56 853.08-1.46 853.08-2.81Z" opacity="1" transform="matrix(1,0,0,1,0,0)" fill="#41907a" class="slogan-text-1" data-fill-palette-color="secondary" id="text-1"></path></svg></g></svg></g></svg></g></svg></g></svg></g></svg></g><g mask="url(#cf24d3cd-b653-468d-abbb-3b91c78d1d8a)"><g transform="matrix(5.610305200550012, 0, 0, 5.610305200550012, 61.734591600152385, 1.0000000000000142)"><svg xmlns="http://www.w3.org/2000/svg" xmlns:xlink="http://www.w3.org/1999/xlink" version="1.1" x="0" y="0" viewBox="0.7544554946467253 3.147000000000002 48.49126866984428 43.70528718757788" enable-background="new 0 0 50 50" xml:space="preserve" width="48.49126866984428" height="43.70528718757788" class="icon-none" data-fill-palette-color="accent" id="none"><g fill="#6575a8" data-fill-palette-color="accent"><g fill="#6575a8" data-fill-palette-color="accent"></g><g fill="#6575a8" data-fill-palette-color="accent"><g fill="#6575a8" data-fill-palette-color="accent"></g><g fill="#6575a8" data-fill-palette-color="accent"></g></g><g fill="#6575a8" data-fill-palette-color="accent"><g fill="#6575a8" data-fill-palette-color="accent"><g fill="#6575a8" data-fill-palette-color="accent"></g></g></g></g><g fill="#6575a8" data-fill-palette-color="accent"><g fill="#6575a8" data-fill-palette-color="accent"><g fill="#6575a8" data-fill-palette-color="accent"><g fill="#6575a8" data-fill-palette-color="accent"><path fill-rule="evenodd" clip-rule="evenodd" fill="#6575a8" d="M22.49 35.696c0 0 3.874-3.285 3.754-8.213 0 0 0.003-6.1 1.41-7.859 0 0-1.583 7.203 1.436 10.497 3.021 3.294 10.531 1.938 10.531 1.938s-2.817 1.645-8.681 1.174c0 0-4.696 1.408-6.808 3.872L22.49 35.696z" data-fill-palette-color="accent"></path><path fill-rule="evenodd" clip-rule="evenodd" fill="#6575a8" d="M22.642 35.877c0.162-0.138 3.958-3.416 3.837-8.4 0-0.054 0.02-6.031 1.359-7.706l-0.414-0.198c-0.066 0.298-1.574 7.361 1.491 10.707 3.074 3.351 10.435 2.066 10.747 2.01l-0.161-0.435c-0.028 0.015-2.837 1.6-8.543 1.142l-0.044-0.004-0.043 0.015c-0.194 0.057-4.786 1.455-6.919 3.943l0.333-0.025-1.643-1.408L22.642 35.877zM24.312 37.257c2.041-2.381 6.65-3.784 6.696-3.799l-0.087 0.009c5.871 0.473 8.701-1.136 8.818-1.205l-0.16-0.436c-0.073 0.014-7.418 1.296-10.315-1.865-2.901-3.167-1.395-10.216-1.379-10.287l-0.415-0.198c-1.442 1.804-1.462 7.753-1.462 8.007 0.115 4.766-3.633 8.001-3.671 8.034l-0.211 0.179 0.21 0.179 1.643 1.408 0.18 0.154L24.312 37.257z" data-fill-palette-color="accent"></path></g><g fill="#6575a8" data-fill-palette-color="accent"><path fill-rule="evenodd" clip-rule="evenodd" fill="#6575a8" d="M16.302 45.604c-0.787 0.812-1.913 0.997-2.519 0.409l0 0c-0.604-0.588-0.459-1.721 0.33-2.53l5.884-6.076c0.788-0.813 1.915-0.997 2.519-0.408l0 0c0.608 0.582 0.458 1.719-0.328 2.527L16.302 45.604z" data-fill-palette-color="accent"></path><path fill-rule="evenodd" clip-rule="evenodd" fill="#6575a8" d="M16.133 45.439c-0.695 0.717-1.675 0.897-2.187 0.404-0.51-0.496-0.359-1.482 0.336-2.197l5.884-6.077c0.406-0.418 0.937-0.674 1.42-0.681 0.31-0.004 0.574 0.091 0.766 0.278 0.193 0.185 0.297 0.444 0.302 0.752 0.009 0.484-0.229 1.024-0.636 1.442L16.133 45.439zM22.358 39.69c0.499-0.515 0.779-1.163 0.768-1.779-0.008-0.437-0.162-0.813-0.447-1.083-0.282-0.275-0.662-0.417-1.099-0.411-0.615 0.009-1.253 0.31-1.752 0.825l-5.885 6.076c-0.875 0.901-1.021 2.186-0.325 2.864 0.699 0.674 1.979 0.488 2.854-0.415L22.358 39.69z" data-fill-palette-color="accent"></path></g><g fill="#6575a8" data-fill-palette-color="accent"><path fill-rule="evenodd" clip-rule="evenodd" fill="#6575a8" d="M30.718 14.616c-1.744 1.625-3.083 3.595-3.874 5.693-1.477 3.923-0.919 7.813 1.492 10.406 3.82 4.101 11.1 3.549 16.229-1.23 2.849-2.652 4.553-6.139 4.674-9.566 0.09-2.526-0.726-4.846-2.295-6.531C43.13 9.29 35.85 9.84 30.718 14.616zM45.563 14.675c1.242 1.334 1.861 3.125 1.789 5.178-0.104 2.93-1.59 5.938-4.075 8.251-4.367 4.069-10.449 4.663-13.561 1.325-1.912-2.056-2.325-5.217-1.106-8.456 0.688-1.828 1.862-3.549 3.394-4.978C36.374 11.931 42.457 11.338 45.563 14.675z" data-fill-palette-color="accent"></path></g></g><g fill="#6575a8" data-fill-palette-color="accent"><rect x="25.757" y="18.299" transform="matrix(-0.7236 0.6902 -0.6902 -0.7236 72.1397 8.4156)" fill-rule="evenodd" clip-rule="evenodd" fill="#6575a8" width="17.256" height="0.708" data-fill-palette-color="accent"></rect></g><g fill="#6575a8" data-fill-palette-color="accent"><rect x="26.138" y="20.843" transform="matrix(-0.7294 0.6841 -0.6841 -0.7294 78.0379 11.5267)" fill-rule="evenodd" clip-rule="evenodd" fill="#6575a8" width="21.202" height="0.708" data-fill-palette-color="accent"></rect></g><g fill="#6575a8" data-fill-palette-color="accent"><rect x="29.123" y="23.581" transform="matrix(-0.7211 0.6929 -0.6929 -0.7211 84.3597 13.9075)" fill-rule="evenodd" clip-rule="evenodd" fill="#6575a8" width="20.514" height="0.708" data-fill-palette-color="accent"></rect></g><g fill="#6575a8" data-fill-palette-color="accent"><rect x="34.493" y="25.838" transform="matrix(-0.7006 0.7136 -0.7136 -0.7006 89.8234 14.6926)" fill-rule="evenodd" clip-rule="evenodd" fill="#6575a8" width="14.671" height="0.707" data-fill-palette-color="accent"></rect></g><g fill="#6575a8" data-fill-palette-color="accent"><rect x="34.254" y="18.202" transform="matrix(-0.7072 -0.707 0.707 -0.7072 57.8816 61.083)" fill-rule="evenodd" clip-rule="evenodd" fill="#6575a8" width="14.671" height="0.707" data-fill-palette-color="accent"></rect></g><g fill="#6575a8" data-fill-palette-color="accent"><rect x="30.572" y="20.889" transform="matrix(-0.6982 -0.7159 0.7159 -0.6982 50.61 63.8207)" fill-rule="evenodd" clip-rule="evenodd" fill="#6575a8" width="16.369" height="0.708" data-fill-palette-color="accent"></rect></g><g fill="#6575a8" data-fill-palette-color="accent"><rect x="28.165" y="23.485" transform="matrix(-0.7041 -0.7101 0.7101 -0.7041 44.2017 66.0981)" fill-rule="evenodd" clip-rule="evenodd" fill="#6575a8" width="15.417" height="0.708" data-fill-palette-color="accent"></rect></g><g fill="#6575a8" data-fill-palette-color="accent"><rect x="26.593" y="25.839" transform="matrix(-0.6956 -0.7184 0.7184 -0.6956 37.0433 68.0791)" fill-rule="evenodd" clip-rule="evenodd" fill="#6575a8" width="12.701" height="0.707" data-fill-palette-color="accent"></rect></g></g><g fill="#6575a8" data-fill-palette-color="accent"><g fill="#6575a8" data-fill-palette-color="accent"><g fill="#6575a8" data-fill-palette-color="accent"><path fill-rule="evenodd" clip-rule="evenodd" fill="#6575a8" d="M27.498 35.959c0 0-3.873-3.285-3.755-8.211 0 0 0-6.102-1.411-7.859 0 0 1.583 7.199-1.436 10.496-3.021 3.291-10.53 1.938-10.53 1.938s2.816 1.644 8.683 1.172c0 0 4.693 1.408 6.804 3.873L27.498 35.959z" data-fill-palette-color="accent"></path><path fill-rule="evenodd" clip-rule="evenodd" fill="#6575a8" d="M27.65 35.779L27.65 35.779c-0.038-0.031-3.785-3.275-3.671-8.026 0-0.258-0.017-6.21-1.463-8.011l-0.414 0.198c0.016 0.071 1.521 7.119-1.379 10.286-2.899 3.158-10.239 1.879-10.314 1.866l-0.16 0.435c0.118 0.069 2.948 1.676 8.82 1.204l-0.087-0.01c0.046 0.015 4.651 1.419 6.692 3.8l0.154 0.179 0.178-0.152 1.645-1.408 0.21-0.181L27.65 35.779zM26.033 37.214c-2.131-2.487-6.721-3.887-6.916-3.944l-0.042-0.014-0.044 0.004c-5.708 0.458-8.517-1.125-8.545-1.141l-0.159 0.436c0.311 0.057 7.671 1.337 10.745-2.011 3.066-3.348 1.558-10.407 1.492-10.707l-0.414 0.198c1.342 1.674 1.358 7.652 1.358 7.712-0.119 4.975 3.676 8.254 3.837 8.391l-0.001-0.359L25.7 37.188 26.033 37.214z" data-fill-palette-color="accent"></path></g><g fill="#6575a8" data-fill-palette-color="accent"><path fill-rule="evenodd" clip-rule="evenodd" fill="#6575a8" d="M33.687 45.867c0.785 0.813 1.91 0.995 2.519 0.411l0 0c0.604-0.59 0.46-1.722-0.329-2.534l-5.888-6.076c-0.784-0.811-1.913-0.995-2.518-0.409l0 0c-0.607 0.587-0.456 1.72 0.328 2.532L33.687 45.867z" data-fill-palette-color="accent"></path><path fill-rule="evenodd" clip-rule="evenodd" fill="#6575a8" d="M33.517 46.031c0.872 0.903 2.151 1.09 2.852 0.418 0.697-0.682 0.552-1.968-0.323-2.869l-5.887-6.075c-0.497-0.515-1.135-0.815-1.751-0.824-0.438-0.008-0.818 0.134-1.101 0.409-0.697 0.674-0.552 1.959 0.322 2.865L33.517 46.031zM27.968 39.628c-0.693-0.721-0.843-1.706-0.333-2.199 0.19-0.187 0.456-0.28 0.766-0.276 0.483 0.007 1.015 0.262 1.419 0.68l5.887 6.076c0.695 0.717 0.845 1.704 0.334 2.202-0.512 0.492-1.493 0.31-2.184-0.407L27.968 39.628z" data-fill-palette-color="accent"></path></g><g fill="#6575a8" data-fill-palette-color="accent"><path fill-rule="evenodd" clip-rule="evenodd" fill="#6575a8" d="M17.983 16.261c1.533 1.429 2.707 3.149 3.393 4.978 1.222 3.238 0.808 6.398-1.107 8.455-1.243 1.334-2.986 2.079-5.041 2.152-2.929 0.104-6.035-1.164-8.518-3.478-4.368-4.066-5.394-10.091-2.286-13.431 1.243-1.334 2.985-2.079 5.038-2.153C12.392 12.681 15.498 13.947 17.983 16.261zM3.043 13.652c-3.817 4.101-2.749 11.323 2.381 16.097 2.847 2.653 6.445 4.104 9.872 3.981 2.528-0.089 4.785-1.066 6.355-2.752 2.415-2.593 2.972-6.482 1.492-10.404-0.788-2.099-2.128-4.069-3.874-5.693-2.848-2.653-6.447-4.104-9.874-3.982C6.867 10.989 4.611 11.967 3.043 13.652z" data-fill-palette-color="accent"></path></g></g><g fill="#6575a8" data-fill-palette-color="accent"><rect x="6.972" y="18.562" transform="matrix(0.7237 0.6901 -0.6901 0.7237 17.365 -5.5401)" fill-rule="evenodd" clip-rule="evenodd" fill="#6575a8" width="17.258" height="0.707" data-fill-palette-color="accent"></rect></g><g fill="#6575a8" data-fill-palette-color="accent"><rect x="2.648" y="21.105" transform="matrix(0.7293 0.6842 -0.6842 0.7293 18.2671 -3.2557)" fill-rule="evenodd" clip-rule="evenodd" fill="#6575a8" width="21.2" height="0.707" data-fill-palette-color="accent"></rect></g><g fill="#6575a8" data-fill-palette-color="accent"><rect x="0.351" y="23.843" transform="matrix(0.721 0.6929 -0.6929 0.721 19.7266 -0.5992)" fill-rule="evenodd" clip-rule="evenodd" fill="#6575a8" width="20.513" height="0.708" data-fill-palette-color="accent"></rect></g><g fill="#6575a8" data-fill-palette-color="accent"><rect x="0.823" y="26.101" transform="matrix(0.7004 0.7137 -0.7137 0.7004 21.3259 2.1027)" fill-rule="evenodd" clip-rule="evenodd" fill="#6575a8" width="14.67" height="0.708" data-fill-palette-color="accent"></rect></g><g fill="#6575a8" data-fill-palette-color="accent"><rect x="1.063" y="18.465" transform="matrix(0.707 -0.7072 0.7072 0.707 -10.8483 11.4543)" fill-rule="evenodd" clip-rule="evenodd" fill="#6575a8" width="14.671" height="0.707" data-fill-palette-color="accent"></rect></g><g fill="#6575a8" data-fill-palette-color="accent"><rect x="3.047" y="21.155" transform="matrix(0.6982 -0.7159 0.7159 0.6982 -12.0086 14.5332)" fill-rule="evenodd" clip-rule="evenodd" fill="#6575a8" width="16.37" height="0.707" data-fill-palette-color="accent"></rect></g><g fill="#6575a8" data-fill-palette-color="accent"><rect x="6.404" y="23.747" transform="matrix(0.704 -0.7102 0.7102 0.704 -12.9385 17.1571)" fill-rule="evenodd" clip-rule="evenodd" fill="#6575a8" width="15.419" height="0.707" data-fill-palette-color="accent"></rect></g><g fill="#6575a8" data-fill-palette-color="accent"><rect x="10.691" y="26.102" transform="matrix(0.6956 -0.7184 0.7184 0.6956 -13.8192 20.2968)" fill-rule="evenodd" clip-rule="evenodd" fill="#6575a8" width="12.703" height="0.709" data-fill-palette-color="accent"></rect></g></g><g fill="#6575a8" data-fill-palette-color="accent"><path fill="#6575a8" d="M19.649 8.485c0 2.949 2.377 5.336 5.311 5.336 0.388 0 0.769-0.043 1.131-0.123-0.303-0.493-1.152-1.647-2.766-2.325-0.083-0.039-2.003-0.943-2.419-2.635-0.224-0.918 0.036-1.868 0.77-2.822l-0.017 0.027c0.032-0.053 0.875-1.311 2.267-1.444 0.923-0.087 1.842 0.336 2.727 1.256l0.028 0.028 0.023 0.036c0.517 0.799 2.132 2.811 3.562 2.849 0.002-0.062 0.004-0.122 0.004-0.184 0-2.947-2.376-5.337-5.31-5.337C22.026 3.148 19.649 5.538 19.649 8.485z" data-fill-palette-color="accent"></path><path fill="#6575a8" d="M26.037 6.304c-0.693-0.712-1.377-1.044-2.028-0.985-0.998 0.091-1.657 1.066-1.662 1.075l-0.011 0.014-0.008 0.011c-0.575 0.747-0.785 1.459-0.623 2.122 0.317 1.305 1.948 2.08 1.951 2.082 2.034 0.853 2.995 2.377 3.245 2.831 1.674-0.663 2.933-2.149 3.273-3.967C28.145 9.37 26.283 6.674 26.037 6.304z" data-fill-palette-color="accent"></path></g></g></svg><g></g></g></g></svg></g><defs></defs></svg><rect width="395.52" height="247.2" fill="none" stroke="none" visibility="hidden"></rect></g></svg></g></svg>